# xmcd CD database file
#
# Track frame offsets:
#	150
#	16028
#	41022
#	57544
#	79278
#	101639
#	116569
#	148613
#	172386
#	194807
#	226653
#	253139
#	289908
#
# Disc length: 4558 seconds
#
# Revision: 0
# Processed by: cddbd v1.5.2PL0 Copyright (c) Steve Scherf et al.
# Submitted via: CDex 1.70beta2
#
DISCID=c311cc0d
DTITLE=Hotel Ost - Live
DYEAR=2008
DGENRE=Jazz
TTITLE0=Heyser Bulgar
TTITLE1=HNO-Tango
TTITLE2=Sirba
TTITLE3=Grines Vehikel (Charlotte)
TTITLE4=Hermelida
TTITLE5=Nedin Cocek
TTITLE6=Ricaz
TTITLE7=Dierdi Cocek
TTITLE8=Sono Dikhljum
TTITLE9=Winko
TTITLE10=Schwarze Augen
TTITLE11=Ajde Jano
TTITLE12=Winko (Bonusvideo)
EXTD=YEAR: 2008
EXTT0=
EXTT1=
EXTT2=
EXTT3=
EXTT4=
EXTT5=
EXTT6=
EXTT7=
EXTT8=
EXTT9=
EXTT10=
EXTT11=
EXTT12=
PLAYORDER=
